<svg width="203" height="41" viewBox="0 0 203 41" fill="none" xmlns="http://www.w3.org/2000/svg">
<rect x="3" y="3" width="94" height="35" stroke="white" stroke-width="6"/>
<path d="M120.705 16H117.951L117.254 14.079H112.392L111.678 16H108.924L113.31 4.661H116.336L120.705 16ZM116.591 11.954L114.823 7.075L113.055 11.954H116.591ZM128.926 16H122.772V4.661H128.739C130.898 4.661 132.003 6.038 132.003 7.551C132.003 8.979 131.119 9.931 130.048 10.152C131.255 10.339 132.224 11.512 132.224 12.94C132.224 14.64 131.085 16 128.926 16ZM128.212 9.2C129.028 9.2 129.538 8.69 129.538 7.976C129.538 7.262 129.028 6.735 128.212 6.735H125.186V9.2H128.212ZM128.297 13.909C129.215 13.909 129.759 13.416 129.759 12.6C129.759 11.886 129.249 11.274 128.297 11.274H125.186V13.909H128.297ZM139.093 16.204C136.917 16.204 135.353 15.473 134.299 14.402L135.608 12.566C136.407 13.399 137.648 14.096 139.212 14.096C140.538 14.096 141.184 13.484 141.184 12.838C141.184 10.832 134.656 12.209 134.656 7.942C134.656 6.055 136.288 4.491 138.957 4.491C140.759 4.491 142.255 5.035 143.377 6.072L142.034 7.84C141.116 6.99 139.892 6.599 138.736 6.599C137.699 6.599 137.121 7.058 137.121 7.738C137.121 9.54 143.632 8.333 143.632 12.566C143.632 14.64 142.153 16.204 139.093 16.204ZM151.65 16.204C148.233 16.204 145.734 13.756 145.734 10.339C145.734 6.922 148.233 4.474 151.65 4.474C155.084 4.474 157.583 6.922 157.583 10.339C157.583 13.756 155.084 16.204 151.65 16.204ZM151.65 14.062C153.741 14.062 155.101 12.447 155.101 10.339C155.101 8.214 153.741 6.616 151.65 6.616C149.559 6.616 148.216 8.214 148.216 10.339C148.216 12.447 149.559 14.062 151.65 14.062ZM167.505 16H160.297V4.661H162.711V13.875H167.505V16ZM174.917 16.204C171.466 16.204 169.8 14.266 169.8 11.478V4.661H172.248V11.393C172.248 12.974 173.166 14.062 174.917 14.062C176.668 14.062 177.569 12.974 177.569 11.393V4.661H180.034V11.461C180.034 14.283 178.368 16.204 174.917 16.204ZM188.337 16H185.906V6.786H182.591V4.661H191.635V6.786H188.337V16ZM202.226 16H194.202V4.661H202.226V6.786H196.616V9.183H202.107V11.308H196.616V13.875H202.226V16ZM116.19 37.204C112.79 37.204 110.155 34.824 110.155 31.339C110.155 27.854 112.79 25.474 116.19 25.474C118.689 25.474 120.134 26.834 120.933 28.245L118.859 29.265C118.383 28.347 117.363 27.616 116.19 27.616C114.133 27.616 112.637 29.197 112.637 31.339C112.637 33.481 114.133 35.062 116.19 35.062C117.363 35.062 118.383 34.348 118.859 33.413L120.933 34.416C120.117 35.827 118.689 37.204 116.19 37.204ZM130.394 37H127.98V25.661H130.394V37ZM148.404 37H146.075L140.669 29.605V37H138.255V25.661H140.737L145.99 32.784V25.661H148.404V37ZM164.274 37H156.25V25.661H164.274V27.786H158.664V30.183H164.155V32.308H158.664V34.875H164.274V37ZM184.062 37H181.631V29.061L178.435 37H177.381L174.185 29.061V37H171.771V25.661H175.154L177.908 32.512L180.662 25.661H184.062V37ZM202.498 37H199.744L199.047 35.079H194.185L193.471 37H190.717L195.103 25.661H198.129L202.498 37ZM198.384 32.954L196.616 28.075L194.848 32.954H198.384Z" fill="white"/>
</svg>
