<svg width="44" height="36" viewBox="0 0 44 36" fill="none" xmlns="http://www.w3.org/2000/svg">
<path opacity="0.7" d="M27.4235 0.00799358C42.5631 0.342105 44.6782 10.4446 43.8434 15.4543L4.7409 23.5256C5.3439 25.6593 8.58125 30.0108 16.7077 30.3449C24.8343 30.6789 31.7833 26.0309 34.2419 23.6652L37.4421 26.8654C34.9371 29.6486 27.2278 35.1867 16.4294 35.0754C5.63143 34.9639 1.26154 28.5358 0.426445 25.3351C0.333678 25.0105 0.120781 23.7206 0.00945231 21.1603C-0.101865 18.6 0.797523 16.0115 1.26141 15.0373C3.67345 9.8885 12.2833 -0.325982 27.4235 0.00799358ZM27.4235 4.60077C17.5434 4.87908 8.77644 9.74942 5.01922 18.3771L39.3903 11.6974C38.6945 9.23905 35.3272 4.37832 27.4235 4.60077Z" fill="white"/>
</svg>
